<svg xmlns="http://www.w3.org/2000/svg" viewBox="0 0 512 512">
  <defs>
    <linearGradient id="g" x1="72" y1="36" x2="440" y2="476" gradientUnits="userSpaceOnUse">
      <stop offset="0" stop-color="#ff5c9a"/>
      <stop offset="0.55" stop-color="#7c5cff"/>
      <stop offset="1" stop-color="#22d3ee"/>
    </linearGradient>
  </defs>
  <rect width="512" height="512" rx="118" fill="#10121d"/>
  <circle cx="256" cy="256" r="196" fill="url(#g)"/>
  <path d="M174 305c-39 0-70-29-70-66 0-32 25-59 57-65 15-42 54-72 99-72 53 0 97 39 105 90 32 10 54 38 54 72 0 39-32 71-73 71H178c-2 0-4-2-4-4v-26z" fill="#fff" opacity=".96"/>
  <path d="M278 138 196 269h58l-23 111 90-141h-59l16-101z" fill="#fff"/>
</svg>
